<svg xmlns="http://www.w3.org/2000/svg" version="1.1" viewBox="-5.0 -5.0 110.0 110.0">
 <path fill="currentColor" d="m43.246 4.668c4.375-2.2656 9.6094-2.1914 13.93 0.22656l29.383 16.457c4.4414 2.4844 7.1914 7.1797 7.1914 12.27v32.758c0 4.9297-2.582 9.4883-6.7812 12.031l-0.41016 0.23828-29.383 16.453c-4.3203 2.4219-9.5547 2.4961-13.93 0.23047l-0.42188-0.23047-29.383-16.453c-4.3008-2.4102-7.0195-6.8867-7.1836-11.793l-0.007812-0.47656v-32.758c0-5.0898 2.75-9.7852 7.1914-12.27l29.383-16.457zm-27.621 61.711 0.011719 0.31641c0.10547 1.5742 0.99609 2.9961 2.3867 3.7734l27.289 15.281v-33.293c-0.85156-0.28906-1.6875-0.65625-2.4883-1.1055l-27.199-15.23zm41.551-15.027c-0.80078 0.44922-1.6367 0.81641-2.4883 1.1055v33.293l27.289-15.281 0.27344-0.16406c1.3203-0.85938 2.125-2.3359 2.125-3.9258v-30.258zm-4.582-38.273c-1.5078-0.84766-3.332-0.90234-4.8828-0.16016l-0.30469 0.16016-26.875 15.047 26.875 15.047c1.6094 0.90234 3.5781 0.90234 5.1875 0l26.875-15.047z"/>
</svg>
